Coordinates
version=1
nRows=6
nColumns=36
inDegrees=yes

Units are S.I. units (second, meters, Newtons, ...)
If the header above contains a line with 'inDegrees', this indicates whether rotational values are in degrees (yes) or radians (no).

endheader
time	pelvis_tilt	pelvis_list	pelvis_rotation	pelvis_tx	pelvis_ty	pelvis_tz	hip_flexion_r	hip_adduction_r	hip_rotation_r	knee_angle_r	knee_angle_r_beta	ankle_angle_r	subtalar_angle_r	mtp_angle_r	hip_flexion_l	hip_adduction_l	hip_rotation_l	knee_angle_l	knee_angle_l_beta	ankle_angle_l	subtalar_angle_l	mtp_angle_l	lumbar_extension	lumbar_bending	lumbar_rotation	arm_flex_r	arm_add_r	arm_rot_r	elbow_flex_r	pro_sup_r	arm_flex_l	arm_add_l	arm_rot_l	elbow_flex_l	pro_sup_l
     45.45000000	     -9.70218897	     -1.27623934	      0.55888200	      0.89636684	      0.78447410	      0.71353260	     33.55530710	      1.96927739	      0.46112892	     10.41284944	      0.18173851	      2.70730527	     -3.98733924	     -7.49999987	      1.13793349	      0.36179523	     -1.00142725	     24.66015038	      0.43040082	     18.31687045	      0.03360581	     -7.49999987	      9.22519550	      2.95003738	     -5.47357540	      1.37212758	    -10.77247055	     -2.32716319	     12.18356967	     99.21157169	      9.37147089	    -10.84176172	      4.99180705	     17.54538587	     96.80492394
     45.46666670	     -9.07129288	     -2.18191925	      0.25522307	      0.90428846	      0.78736416	      0.71752827	     32.38674911	      3.35979008	      0.61970550	     12.49462228	      0.21807230	      1.82277934	     -5.74686068	     -7.49999987	      0.57217759	     -1.04416978	     -1.60623106	     27.21598008	      0.47500846	     15.97077346	     -0.43158845	     -7.49999987	      9.12170118	      4.20405633	     -5.26018455	      2.00878151	    -11.30608961	     -1.37427601	     11.42302760	     99.64404200	      8.72682322	    -10.27318279	      4.35850293	     15.55870738	     96.78234908
     45.48333330	     -8.65534500	     -3.17397517	     -0.04725145	      0.91042563	      0.79170342	      0.72093643	     31.38445592	      4.82436800	      0.55676199	     14.44975459	      0.25219579	      2.03812079	     -6.33194991	     -7.49999987	      0.32376610	     -2.69120519	     -2.38838390	     29.98511809	      0.52333904	     12.60719341	     -0.33605088	     -7.49999987	      9.29944353	      5.48054691	     -4.84914324	      2.09821069	    -11.92374919	     -1.17595237	     11.63886125	     99.50414200	      7.43023986	     -9.81911822	      4.29427978	     15.04830549	     96.61611185
     45.50000000	     -8.18477270	     -4.22755939	     -0.26941756	      0.91430523	      0.79612583	      0.72345499	     29.99820833	      6.35911749	      0.71862631	     15.64317162	      0.27302485	      2.23019330	     -7.39227975	     -7.49999987	      0.19056543	     -4.40628616	     -2.81769052	     32.88910246	      0.57402313	      8.47042874	     -0.41950118	     -7.49999987	      9.61459366	      6.82393123	     -4.69125928	      2.36889350	    -12.47966886	     -0.47433203	     11.18464249	     99.80598776	      6.24138971	     -9.24962177	      4.04844301	     13.38653965	     96.68517872
     45.51666670	     -7.73135153	     -5.07115985	     -0.32463584	      0.91573882	      0.79867975	      0.72568163	     28.59491521	      7.62641512	      0.97479110	     16.61492070	      0.28998507	      3.04366526	     -7.93611064	     -7.49999987	      0.47808658	     -5.98629376	     -3.22093731	     36.01701729	      0.62861554	      3.97354616	      0.20659837	     -7.49999987	      9.96028374	      7.63760897	     -4.28273149	      2.38156374	    -12.82149310	     -0.22267320	     11.08032685	     99.89228020	      5.19824750	     -8.81415286	      4.00863119	     12.70218651	     96.71031276
     45.53333330	     -7.60683644	     -5.95275774	     -0.27175769	      0.91610519	      0.79948637	      0.72738768	     27.25425594	      8.83599012	      1.16387648	     16.79718848	      0.29316624	      3.67543134	     -8.69930639	     -7.49999987	      1.81485903	     -7.46082505	     -3.06568264	     39.84557985	      0.69543656	     -0.68211823	     -0.28208877	     -7.49999987	     10.76372870	      8.51208658	     -4.38755910	      2.54404084	    -13.51273070	      4.26554929	     10.73608948	    100.44936254	      4.24033870	     -8.19951116	      3.26507172	     10.80728963	     96.95449636
